<svg width="25" height="24" viewBox="0 0 25 24" fill="none" xmlns="http://www.w3.org/2000/svg">
<rect x="0.5" width="24" height="24" rx="12" fill="#5F5F61"/>
<path d="M18.8601 8.9398C18.4401 9.1198 17.9601 9.2398 17.4801 9.2998C17.9601 8.9998 18.3801 8.51981 18.5601 7.97981C18.0801 8.27981 17.6001 8.45981 17.0001 8.57981C16.5801 8.09981 15.9201 7.7998 15.2601 7.7998C13.9401 7.7998 12.8601 8.8798 12.8601 10.1998C12.8601 10.3798 12.8601 10.5598 12.9201 10.7398C10.9401 10.6198 9.14009 9.6598 7.94009 8.2198C7.76009 8.5798 7.64009 8.9998 7.64009 9.4198C7.64009 10.2598 8.0601 10.9798 8.7201 11.3998C8.3001 11.3998 7.94009 11.2798 7.64009 11.0998C7.64009 12.2398 8.48009 13.2598 9.56009 13.4398C9.38009 13.4998 9.1401 13.4998 8.9001 13.4998C8.7201 13.4998 8.6001 13.4998 8.4201 13.4398C8.7201 14.3998 9.6201 15.1198 10.7001 15.1198C9.8601 15.7798 8.8401 16.1398 7.7001 16.1398C7.5201 16.1398 7.3401 16.1398 7.1001 16.0798C8.1801 16.7398 9.4401 17.1598 10.8201 17.1598C15.2601 17.1598 17.6601 13.4998 17.6601 10.3198V10.0198C18.1401 9.8398 18.5601 9.4198 18.8601 8.9398Z" fill="#FFFBF9"/>
</svg>
